<?xml version='1.0' encoding='UTF-8' standalone='no'?>
<!-- Created with Fritzing (http://www.fritzing.org/) -->
<svg xmlns:svg='http://www.w3.org/2000/svg' xmlns='http://www.w3.org/2000/svg' version='1.2' baseProfile='tiny' x='0in' y='0in' width='3.61343in' height='1.38848in' viewBox='0 0 260.167 99.9702' >
<g partID='65120'><g transform='translate(0,71.5503)' ><g transform='matrix(0,-1,1,0,0,0)'  ><g transform="matrix(1, 0, 0, 1, 0, -776.298)">
 <g  id="breadboard">
  <g  gorn="0.7.0.0.0.0">
   <g transform="matrix(1, 0, 0, 1, 0, 0.001944)">
    <g >
     <g >
      <g >
       <rect  width="36" x="7.2" stroke-opacity="1" y="776.368" fill="#343434" gorn="0.7.0.0.0.0.0.0.0.0" rx="1.8" height="43.92" stroke="#000000" fill-opacity="1" style="display:inline;fill-rule:evenodd;stroke-miterlimit:4;stroke-dasharray:none;" id="rect5185" stroke-width="0.144"/>
      </g>
     </g>
    </g>
   </g>
   <g transform="matrix(1, 0, 0, 1, 0, 0.001944)">
    <g >
     <g >
      <g >
       <rect  width="2.16" x="13.32" y="820.288" fill="#b3b3b3" gorn="0.7.0.0.0.0.1.0.0.0" height="14.4" stroke="none" fill-opacity="1" style="display:inline;fill-rule:evenodd;" id="rect5470"/>
      </g>
     </g>
    </g>
   </g>
   <g transform="matrix(1, 0, 0, 1, 0, 0.001944)">
    <g >
     <g >
      <g >
       <rect  width="2.16" x="20.52" y="820.288" fill="#b3b3b3" gorn="0.7.0.0.0.0.2.0.0.0" height="14.4" stroke="none" fill-opacity="1" style="display:inline;fill-rule:evenodd;" id="rect5476"/>
      </g>
     </g>
    </g>
   </g>
   <g transform="matrix(1, 0, 0, 1, 0, 0.001944)">
    <g >
     <g >
      <g >
       <rect  width="2.16" x="27.72" y="820.288" fill="#b3b3b3" gorn="0.7.0.0.0.0.3.0.0.0" height="14.4" stroke="none" fill-opacity="1" style="display:inline;fill-rule:evenodd;" id="rect5478"/>
      </g>
     </g>
    </g>
   </g>
   <g transform="matrix(1, 0, 0, 1, 0, 0.001944)">
    <g >
     <g >
      <g >
       <rect  width="2.16" x="34.92" y="820.288" fill="#b3b3b3" gorn="0.7.0.0.0.0.4.0.0.0" height="14.4" stroke="none" fill-opacity="1" style="display:inline;fill-rule:evenodd;" id="rect5480"/>
      </g>
     </g>
    </g>
   </g>
   <g transform="matrix(1, 0, 0, 1, 0, 0.001944)">
    <g >
     <g >
      <g >
       <rect  width="2.88" x="12.96" y="833.248" fill="none" gorn="0.7.0.0.0.0.5.0.0.0" height="2.88" stroke="none" style="display:inline;" id="connector1"/>
      </g>
     </g>
    </g>
   </g>
   <g transform="matrix(1, 0, 0, 1, 0, 0.001944)">
    <g >
     <g >
      <g >
       <rect  width="2.88" x="20.16" y="833.248" fill="none" gorn="0.7.0.0.0.0.6.0.0.0" height="2.88" stroke="none" style="display:inline;" id="connector2"/>
      </g>
     </g>
    </g>
   </g>
   <g transform="matrix(1, 0, 0, 1, 0, 0.001944)">
    <g >
     <g >
      <g >
       <rect  width="2.88" x="27.36" y="833.248" fill="none" gorn="0.7.0.0.0.0.7.0.0.0" height="2.88" stroke="none" style="display:inline;" id="connector3"/>
      </g>
     </g>
    </g>
   </g>
   <g transform="matrix(1, 0, 0, 1, 0, 0.001944)">
    <g >
     <g >
      <g >
       <rect  width="2.88" x="34.56" y="833.248" fill="none" gorn="0.7.0.0.0.0.8.0.0.0" height="2.88" stroke="none" style="display:inline;" id="connector4"/>
      </g>
     </g>
    </g>
   </g>
   <rect  width="16.92" x="11.88" stroke-opacity="1" y="781.77" fill="#d7f4ee" gorn="0.7.0.0.0.0.9" height="24.12" stroke="#000000" fill-opacity="0.63586958" style="display:inline;fill-rule:evenodd;stroke-linecap:round;stroke-linejoin:miter;stroke-miterlimit:4;stroke-dasharray:none;" id="rect5401" stroke-width="0.229092"/>
   <rect  width="34.56" x="7.92" stroke-opacity="1" y="777.09" fill="none" gorn="0.7.0.0.0.0.10" rx="1.41061" height="42.48" stroke="#316691" style="display:inline;stroke-linecap:round;stroke-linejoin:miter;stroke-miterlimit:4;stroke-dasharray:none;" id="rect5406" stroke-width="1.44"/>
   <path  stroke-opacity="1" fill="#48a1d1" gorn="0.7.0.0.0.0.11" stroke="#000000" fill-opacity="1" style="display:inline;fill-rule:evenodd;stroke-miterlimit:4;stroke-dasharray:none;" id="rect4672" stroke-width="0.144" d="m9,776.375c-0.9972,0,-1.8,0.8028,-1.8,1.8l0,9L14.4,787.175l0,2.875L7.2,790.05l0,2.875L14.4,792.925L14.4,795.8L7.2,795.8l0,2.9L14.4,798.7l0,2.87496L7.2,801.576l0,2.87504L14.4,804.448l0,2.87496L7.2,807.328l0,2.87504L14.4,810.2l0,2.9L7.2,813.104l0,5.4c0,0.9972,0.8028,1.8,1.8,1.8l32.4,0c0.9972,0,1.8,-0.8028,1.8,-1.8l0,-5.4l-7.2,0l0,-2.9l7.2,0l0,-2.87504l-7.2,0l0,-2.87496l7.2,0l0,-2.87504l-7.2,0l0,-2.87496l7.2,0l0,-2.9l-7.2,0l0,-2.875l7.2,0l0,-2.875l-7.2,0l0,-2.875l7.2,0l0,-9c0,-0.9972,-0.8028,-1.8,-1.8,-1.8L32.4,776.375l0,7.2l-2.875,0l0,-7.2L26.65,776.375l0,7.2l-2.9,0l0,-7.2l-2.875,0l0,7.2L18,783.575l0,-7.2zm9,10.8l2.875,0l0,2.875L18,790.05Zm5.75,0l2.9,0l0,2.875l-2.9,0zm5.775,0L32.4,787.175l0,2.875L29.525,790.05ZM18,792.925l2.875,0L20.875,795.8L18,795.8Zm5.75,0l2.9,0L26.65,795.8l-2.9,0zm5.775,0L32.4,792.925L32.4,795.8L29.525,795.8ZM18,798.7l2.875,0l0,2.87496L18,801.576Zm5.75,0l2.9,0l0,2.87496l-2.9,0zm5.775,0L32.4,798.7l0,2.87496L29.525,801.576ZM18,804.448l2.875,0l0,2.87496L18,807.328Zm5.75,0l2.9,0l0,2.87496l-2.9,0zm5.775,0L32.4,804.448l0,2.87496L29.525,807.328ZM18,810.2l2.875,0l0,2.9L18,813.104Zm5.75,0l2.9,0l0,2.9l-2.9,0zm5.775,0L32.4,810.2l0,2.9l-2.875,0z"/>
   <g transform="matrix(1, 0, 0, 1, 2.67029e-07, 7.2)">
    <g >
     <g >
      <g >
       <g  stroke-opacity="0.70652173" gorn="0.7.0.0.0.0.12.0.0.0" stroke="#ffffff" style="stroke-miterlimit:4;stroke-dasharray:none;" id="g5460" stroke-width="0.504">
        <path  stroke-opacity="0.70652173" fill="none" gorn="0.7.0.0.0.0.12.0.0.0.0" stroke="#ffffff" style="stroke-linecap:round;stroke-linejoin:miter;stroke-miterlimit:4;stroke-dasharray:none;" id="path5415" stroke-width="0.504" d="m9,769.89l7.56,0m-8.64,1.07998c0,-0.596472,0.483533,-1.08,1.08,-1.08M7.92,779.25l0,-8.28"/>
        <path  stroke-opacity="0.70652173" fill="none" gorn="0.7.0.0.0.0.12.0.0.0.1" stroke="#ffffff" style="stroke-linecap:round;stroke-linejoin:miter;stroke-miterlimit:4;stroke-dasharray:none;" id="path5422" stroke-width="0.504" d="m7.92,783.57l0,1.44"/>
        <path  stroke-opacity="0.70652173" fill="none" gorn="0.7.0.0.0.0.12.0.0.0.2" stroke="#ffffff" style="color:#000000;display:inline;overflow:visible;visibility:visible;stroke-linecap:round;stroke-linejoin:miter;stroke-miterlimit:4;stroke-dasharray:none;stroke-dashoffset:0;marker:none;enable-background:accumulate" id="path5426" stroke-width="0.504" d="m7.92,789.33l0,1.44"/>
        <path  stroke-opacity="0.70652173" fill="none" gorn="0.7.0.0.0.0.12.0.0.0.3" stroke="#ffffff" style="color:#000000;display:inline;overflow:visible;visibility:visible;stroke-linecap:round;stroke-linejoin:miter;stroke-miterlimit:4;stroke-dasharray:none;stroke-dashoffset:0;marker:none;enable-background:accumulate" id="path5428" stroke-width="0.504" d="m7.92,795.09l0,1.44"/>
        <path  stroke-opacity="0.70652173" fill="none" gorn="0.7.0.0.0.0.12.0.0.0.4" stroke="#ffffff" style="color:#000000;display:inline;overflow:visible;visibility:visible;stroke-linecap:round;stroke-linejoin:miter;stroke-miterlimit:4;stroke-dasharray:none;stroke-dashoffset:0;marker:none;enable-background:accumulate" id="path5430" stroke-width="0.504" d="m7.92,800.848l0,1.44"/>
        <path  stroke-opacity="0.70652173" fill="none" gorn="0.7.0.0.0.0.12.0.0.0.5" stroke="#ffffff" style="color:#000000;display:inline;overflow:visible;visibility:visible;stroke-linecap:round;stroke-linejoin:miter;stroke-miterlimit:4;stroke-dasharray:none;stroke-dashoffset:0;marker:none;enable-background:accumulate" id="path5432" stroke-width="0.504" d="m7.92,806.968l0,3.6"/>
       </g>
      </g>
     </g>
    </g>
   </g>
   <g transform="matrix(1, 0, 0, 1, 2.67029e-07, 7.2)">
    <g >
     <g >
      <g >
       <g  stroke-opacity="0.06521738" gorn="0.7.0.0.0.0.13.0.0.0" stroke="#000000" id="g5510" stroke-width="0.8">
        <path  stroke-opacity="0.06521738" fill="none" gorn="0.7.0.0.0.0.13.0.0.0.0" stroke="#000000" style="color:#000000;display:inline;overflow:visible;visibility:visible;stroke-linecap:round;stroke-linejoin:miter;stroke-miterlimit:4;stroke-dasharray:none;stroke-dashoffset:0;marker:none;enable-background:accumulate" id="path5498" stroke-width="0.36" d="m42.48,811.288l0,-4.68m0,4.68c0,0.59648,-0.483533,1.08,-1.08,1.08m-4.68,0l4.68,0"/>
        <path  stroke-opacity="0.06521738" fill="none" gorn="0.7.0.0.0.0.13.0.0.0.1" stroke="#000000" style="color:#000000;display:inline;overflow:visible;visibility:visible;stroke-linecap:round;stroke-linejoin:miter;stroke-miterlimit:4;stroke-dasharray:none;stroke-dashoffset:0;marker:none;enable-background:accumulate" id="path5502" stroke-width="0.36" d="m42.48,802.288l0,-1.44"/>
        <path  stroke-opacity="0.06521738" fill="none" gorn="0.7.0.0.0.0.13.0.0.0.2" stroke="#000000" style="color:#000000;display:inline;overflow:visible;visibility:visible;stroke-linecap:round;stroke-linejoin:miter;stroke-miterlimit:4;stroke-dasharray:none;stroke-dashoffset:0;marker:none;enable-background:accumulate" id="path5504" stroke-width="0.36" d="m42.48,796.53l0,-1.44"/>
        <path  stroke-opacity="0.06521738" fill="none" gorn="0.7.0.0.0.0.13.0.0.0.3" stroke="#000000" style="color:#000000;display:inline;overflow:visible;visibility:visible;stroke-linecap:round;stroke-linejoin:miter;stroke-miterlimit:4;stroke-dasharray:none;stroke-dashoffset:0;marker:none;enable-background:accumulate" id="path5506" stroke-width="0.36" d="m42.48,790.77l0,-1.44"/>
        <path  stroke-opacity="0.06521738" fill="none" gorn="0.7.0.0.0.0.13.0.0.0.4" stroke="#000000" style="color:#000000;display:inline;overflow:visible;visibility:visible;stroke-linecap:round;stroke-linejoin:miter;stroke-miterlimit:4;stroke-dasharray:none;stroke-dashoffset:0;marker:none;enable-background:accumulate" id="path5508" stroke-width="0.36" d="m42.48,785.01l0,-1.44"/>
       </g>
      </g>
     </g>
    </g>
   </g>
  </g>
 </g>
</g>
</g></g></g><g partID='75470'><line stroke-linecap='round' stroke='#846521' x1='141.935' y1='3.27819' x2='256.967' y2='3.27819' stroke-width='3.2' /><line stroke-linecap='round' stroke='#a37911' x1='141.935' y1='3.27819' x2='256.967' y2='3.27819' stroke-width='1.6' /></g><g partID='75400'><line stroke-linecap='round' stroke='#846521' x1='256.967' y1='3.27819' x2='256.967' y2='96.7702' stroke-width='3.2' /><line stroke-linecap='round' stroke='#a37911' x1='256.967' y1='3.27819' x2='256.967' y2='96.7702' stroke-width='1.6' /></g><g partID='75330'><line stroke-linecap='round' stroke='#846521' x1='256.967' y1='96.7702' x2='91.5228' y2='96.7702' stroke-width='3.2' /><line stroke-linecap='round' stroke='#a37911' x1='256.967' y1='96.7702' x2='91.5228' y2='96.7702' stroke-width='1.6' /></g><g partID='75260'><line stroke-linecap='round' stroke='#846521' x1='91.5228' y1='96.7702' x2='91.5228' y2='53.6906' stroke-width='3.2' /><line stroke-linecap='round' stroke='#a37911' x1='91.5228' y1='96.7702' x2='91.5228' y2='53.6906' stroke-width='1.6' /></g><g partID='75960'><line stroke-linecap='round' stroke='#846521' x1='91.5228' y1='53.6906' x2='77.0255' y2='51.8112' stroke-width='3.2' /><line stroke-linecap='round' stroke='#a37911' x1='91.5228' y1='53.6906' x2='77.0255' y2='51.8112' stroke-width='1.6' /></g><g partID='74290'><line stroke-linecap='round' stroke='#846521' x1='141.595' y1='10.644' x2='141.935' y2='3.27819' stroke-width='3.2' /><line stroke-linecap='round' stroke='#a37911' x1='141.595' y1='10.644' x2='141.935' y2='3.27819' stroke-width='1.6' /></g><g partID='74480'><line stroke-linecap='round' stroke='#8c0000' x1='199.425' y1='75.218' x2='199.222' y2='89.4375' stroke-width='3.2' /><line stroke-linecap='round' stroke='#cc1414' x1='199.425' y1='75.218' x2='199.222' y2='89.4375' stroke-width='1.6' /></g><g partID='75750'><line stroke-linecap='round' stroke='#8c0000' x1='199.222' y1='89.4375' x2='98.3972' y2='89.4375' stroke-width='3.2' /><line stroke-linecap='round' stroke='#cc1414' x1='199.222' y1='89.4375' x2='98.3972' y2='89.4375' stroke-width='1.6' /></g><g partID='75680'><line stroke-linecap='round' stroke='#8c0000' x1='98.3972' y1='89.4375' x2='98.3972' y2='46.3578' stroke-width='3.2' /><line stroke-linecap='round' stroke='#cc1414' x1='98.3972' y1='89.4375' x2='98.3972' y2='46.3578' stroke-width='1.6' /></g><g partID='75540'><line stroke-linecap='round' stroke='#8c0000' x1='98.3972' y1='46.3578' x2='77.0255' y2='46.418' stroke-width='3.2' /><line stroke-linecap='round' stroke='#cc1414' x1='98.3972' y1='46.3578' x2='77.0255' y2='46.418' stroke-width='1.6' /></g><g partID='75890'><line stroke-linecap='round' stroke='#000000' x1='192.348' y1='82.5631' x2='105.73' y2='82.5631' stroke-width='3.2' /><line stroke-linecap='round' stroke='#404040' x1='192.348' y1='82.5631' x2='105.73' y2='82.5631' stroke-width='1.6' /></g><g partID='75610'><line stroke-linecap='round' stroke='#000000' x1='105.73' y1='39.0251' x2='77.0255' y2='40.5934' stroke-width='3.2' /><line stroke-linecap='round' stroke='#404040' x1='105.73' y1='39.0251' x2='77.0255' y2='40.5934' stroke-width='1.6' /></g><g partID='74950'><line stroke-linecap='round' stroke='#000000' x1='192.226' y1='75.218' x2='192.348' y2='82.5631' stroke-width='3.2' /><line stroke-linecap='round' stroke='#404040' x1='192.226' y1='75.218' x2='192.348' y2='82.5631' stroke-width='1.6' /></g><g partID='75820'><line stroke-linecap='round' stroke='#000000' x1='105.73' y1='82.5631' x2='105.73' y2='39.0251' stroke-width='3.2' /><line stroke-linecap='round' stroke='#404040' x1='105.73' y1='82.5631' x2='105.73' y2='39.0251' stroke-width='1.6' /></g></svg>